<svg width="40" height="40" viewBox="0 0 40 40" fill="none" xmlns="http://www.w3.org/2000/svg">
<rect width="40" height="40" rx="20" fill="#039BE5"/>
<path d="M11.429 19.5931C13.1705 18.6339 15.1145 17.8332 16.9309 17.0285C20.0558 15.7105 23.1931 14.4153 26.362 13.2094C26.9786 13.004 28.0864 12.8031 28.195 13.7168C28.1355 15.0101 27.8908 16.2959 27.723 17.5817C27.297 20.4092 26.8046 23.2271 26.3245 26.0453C26.1591 26.9841 24.9831 27.47 24.2307 26.8693C22.4224 25.6479 20.6001 24.4383 18.8149 23.1885C18.2301 22.5943 18.7724 21.7409 19.2947 21.3166C20.7841 19.8488 22.3636 18.6018 23.7751 17.0581C24.1559 16.1387 23.0308 16.9136 22.6598 17.151C20.6208 18.5561 18.6317 20.047 16.482 21.2819C15.3839 21.8863 14.1041 21.3698 13.0065 21.0325C12.0224 20.625 10.5803 20.2145 11.4289 19.5933L11.429 19.5931Z" fill="white"/>
</svg>
