<svg width="223" height="30" viewBox="0 0 223 30" fill="none" xmlns="http://www.w3.org/2000/svg">
<g clip-path="url(#clip0_37_555)">
<path d="M51.5172 11.6042C51.5172 11.6042 51.6279 10.1317 53.0257 9.56393C54.4236 8.99613 56.2569 9.70829 56.0596 10.7789C55.8623 11.8496 53.8413 12.8601 52.4772 12.5136C51.3801 12.2345 51.5172 11.6042 51.5172 11.6042Z" fill="white"/>
<path d="M53.2413 9.97306C54.2686 9.55683 55.5269 9.83111 56.0466 10.4302C56.0731 10.5409 56.0803 10.6587 56.0587 10.7814C55.8614 11.8521 53.8404 12.8626 52.4762 12.5161C52.1033 12.4223 51.8747 12.2852 51.7328 12.148C51.7232 12.0662 51.7328 12.0133 51.7328 12.0133C51.7328 12.0133 51.8435 10.5409 53.2413 9.97306Z" fill="white"/>
<path d="M9.48285 11.6042C9.48285 11.6042 9.37218 10.1317 7.97433 9.56393C6.57649 8.99613 4.74317 9.70829 4.94045 10.7789C5.13774 11.8496 7.15872 12.8601 8.52289 12.5136C9.61999 12.2345 9.48285 11.6042 9.48285 11.6042Z" fill="white"/>
<path d="M7.75782 9.97306C6.73049 9.55683 5.47219 9.83111 4.95251 10.4302C4.92604 10.5409 4.91882 10.6587 4.94048 10.7814C5.13776 11.8521 7.15875 12.8626 8.52291 12.5161C8.89583 12.4223 9.12439 12.2852 9.26634 12.148C9.27597 12.0662 9.26634 12.0133 9.26634 12.0133C9.26634 12.0133 9.15567 10.5409 7.75782 9.97306Z" fill="white"/>
<path d="M30.5 1.59546C21.7737 1.59546 17.3853 2.10792 15.8334 2.3437C15.4148 2.40626 15.0467 2.64926 14.8229 3.00774L9.27006 11.9458L5.83679 14.5538C5.60582 14.7294 5.33876 14.857 5.05486 14.9243C4.67713 15.0133 4.33308 15.2058 4.05881 15.4801L1.53498 18.0039C1.20537 18.3335 0.996056 18.7618 0.938314 19.2237L0.78674 20.4267L0.0986432 21.4901C0.036089 21.5936 0 21.7163 0 21.839V28.4048H1.22221L1.84535 22.1999L3.90483 25.6548C3.96498 25.7558 4.07324 25.8184 4.19113 25.8184H12.0104C12.34 25.8184 12.4699 26.2442 12.1957 26.4295L11.5461 26.865C11.3247 27.0117 11.3584 27.3461 11.6014 27.4496L13.8101 28.3807C13.851 28.3975 13.8943 28.4072 13.94 28.4072H30.5H47.06C47.1033 28.4072 47.1491 28.3975 47.19 28.3807L49.3986 27.4496C49.644 27.3461 49.6753 27.0141 49.4539 26.865L48.8043 26.4295C48.5301 26.2466 48.66 25.8184 48.9896 25.8184H56.8089C56.9268 25.8184 57.035 25.7558 57.0952 25.6548L59.1547 22.1999L59.7778 28.4048H61V21.839C61 21.7139 60.9639 21.5936 60.8965 21.4901L60.2085 20.4267L60.0569 19.2237C59.9991 18.7618 59.7898 18.3311 59.4602 18.0039L56.9364 15.4801C56.6621 15.2058 56.3181 15.0133 55.9403 14.9243C55.6564 14.857 55.3918 14.7318 55.1584 14.5538L51.7251 11.9458L46.1722 3.00774C45.9485 2.64926 45.5804 2.40626 45.1618 2.3437C43.6147 2.10792 39.2263 1.59546 30.5 1.59546Z" fill="white"/>
<path d="M45.1656 2.3437C43.6162 2.11033 39.2277 1.59546 30.499 1.59546C21.7703 1.59546 17.3795 2.11033 15.8325 2.3437C15.4138 2.40626 15.0457 2.64926 14.8244 3.00774L9.27148 11.9458H51.7266L46.1737 3.00774C45.9499 2.64926 45.5818 2.40626 45.1656 2.3437Z" fill="white"/>
<path d="M5.07407 14.9195C4.70597 15.011 4.36432 15.177 4.09727 15.4464L1.53976 18.0039C1.21015 18.3335 1.00083 18.7618 0.943089 19.2237L0.791515 20.4267C0.514833 20.855 0.822793 21.418 1.33044 21.418H60.8508L60.2084 20.4267L60.0568 19.2237C59.9991 18.7618 59.7898 18.3311 59.4602 18.0039L56.9027 15.4464C56.6356 15.1794 56.2916 15.011 55.9259 14.9195C55.6492 14.8522 55.3893 14.7271 55.1608 14.5538L51.7275 11.9458H9.27243L5.83916 14.5538C5.613 14.7271 5.35076 14.8498 5.07407 14.9195Z" fill="white"/>
<path d="M4.94588 17.3976H56.0527C56.1008 17.3976 56.1201 17.3374 56.084 17.3085L49.9344 12.2874H11.0642L4.9146 17.3085C4.87851 17.3374 4.90017 17.3976 4.94588 17.3976Z" fill="white"/>
<path d="M0 21.8389V28.4047H1.22221L1.84535 22.1998L3.90483 25.6547C3.96498 25.7557 4.07324 25.8183 4.19113 25.8183H12.0104C12.34 25.8183 12.4699 26.2441 12.1957 26.4294L11.5461 26.8649C11.3247 27.0116 11.3584 27.3461 11.6014 27.4495L13.8101 28.3806C13.851 28.3975 13.8943 28.4071 13.94 28.4071H47.06C47.1033 28.4071 47.1491 28.3975 47.19 28.3806L49.3986 27.4495C49.644 27.3461 49.6753 27.014 49.4539 26.8649L48.8043 26.4294C48.5301 26.2465 48.66 25.8183 48.9896 25.8183H56.8089C56.9268 25.8183 57.035 25.7557 57.0952 25.6547L59.1547 22.1998L59.7778 28.4047H61V21.8389C61 21.7138 60.9639 21.5935 60.8965 21.49L60.2085 20.4266L60.1988 20.3448C60.0689 19.2958 59.1763 18.5115 58.1201 18.5115H2.8799C1.8237 18.5115 0.933502 19.2982 0.801175 20.3448L0.791552 20.4266L0.103455 21.49C0.036089 21.5935 0 21.7162 0 21.8389Z" fill="white"/>
<path d="M0 21.8389V28.4047H1.22221L1.7443 23.203C1.77558 22.8831 2.19662 22.7892 2.36263 23.0659L3.90483 25.6547C3.96498 25.7557 4.07324 25.8183 4.19113 25.8183H12.0104C12.34 25.8183 12.4699 26.2441 12.1957 26.4294L11.5461 26.8649C11.3247 27.0116 11.3584 27.3461 11.6014 27.4495L13.8101 28.3806C13.851 28.3975 13.8943 28.4071 13.94 28.4071H47.06C47.1033 28.4071 47.1491 28.3975 47.19 28.3806L49.3986 27.4495C49.644 27.3461 49.6753 27.014 49.4539 26.8649L48.8043 26.4294C48.5301 26.2465 48.66 25.8183 48.9896 25.8183H56.8089C56.9268 25.8183 57.035 25.7557 57.0952 25.6547L58.6374 23.0659C58.801 22.7892 59.222 22.8831 59.2557 23.203L59.7778 28.4047H61V21.8389C61 21.7138 60.9639 21.5935 60.8965 21.49L60.2085 20.4266L60.1988 20.3448C60.0689 19.2958 59.1763 18.5115 58.1201 18.5115H2.8799C1.8237 18.5115 0.933502 19.2982 0.801175 20.3448L0.791552 20.4266L0.103455 21.49C0.036089 21.5935 0 21.7162 0 21.8389Z" fill="white"/>
<path d="M18.4559 22.8303C18.877 22.3539 19.4833 22.082 20.1184 22.082H40.8792C41.5144 22.082 42.1207 22.3539 42.5417 22.8303L44.2283 24.7358C44.6012 25.1568 44.3029 25.8184 43.7399 25.8184H17.2578C16.6972 25.8184 16.3989 25.1568 16.7694 24.7358L18.4559 22.8303Z" fill="white"/>
<path d="M13.5309 22.049C11.6351 21.4187 8.67578 20.5116 5.10778 19.6768C4.65787 19.5709 4.18631 19.696 3.85188 20.0136C3.38513 20.4539 3.28889 21.1588 3.61851 21.7098L5.02838 24.058C5.27619 24.4694 5.72129 24.722 6.20007 24.722H13.0858C13.4082 24.722 13.7186 24.6089 13.964 24.402L13.9736 24.3924C14.7941 23.7043 14.5438 22.3858 13.5285 22.049H13.5309Z" fill="#1E1E1E"/>
<path opacity="0.24" d="M6.19961 24.378C5.84113 24.378 5.5043 24.188 5.32145 23.88L3.91157 21.5318C3.66616 21.1228 3.74075 20.5887 4.0872 20.2591C4.27727 20.0786 4.52749 19.98 4.79214 19.98C4.87154 19.98 4.95093 19.9896 5.03033 20.0064C8.60554 20.8437 11.5672 21.7532 13.4222 22.3715C13.7783 22.4894 14.0333 22.7805 14.1055 23.151C14.1753 23.5215 14.0454 23.8872 13.7566 24.1302C13.5618 24.2938 13.3284 24.378 13.0878 24.378H6.20202H6.19961Z" fill="#1E1E1E"/>
<path d="M47.0239 24.293L47.0336 24.3026C47.279 24.5096 47.5917 24.6226 47.9117 24.6226H54.7975C55.2787 24.6226 55.7214 24.37 55.9692 23.9586L57.3791 21.6104C57.7087 21.0594 57.6124 20.3545 57.1457 19.9142C56.8113 19.5966 56.3397 19.4715 55.8898 19.5774C52.3218 20.4123 49.3625 21.3193 47.4666 21.9496C46.4513 22.2865 46.2011 23.6073 47.0215 24.293H47.0239Z" fill="#1E1E1E"/>
<path opacity="0.24" d="M54.7994 24.2787C55.1579 24.2787 55.4947 24.0886 55.6776 23.7806L57.0874 21.4324C57.3328 21.0234 57.2583 20.4893 56.9118 20.1597C56.7217 19.9793 56.4715 19.8806 56.2069 19.8806C56.1275 19.8806 56.0481 19.8902 55.9687 19.9071C52.3935 20.7443 49.4318 21.6538 47.5768 22.2721C47.2207 22.39 46.9657 22.6811 46.8935 23.0516C46.8237 23.4221 46.9537 23.7878 47.2424 24.0308C47.4372 24.1945 47.6706 24.2787 47.9112 24.2787H54.797H54.7994Z" fill="#1E1E1E"/>
<path d="M30.4989 2.72144C22.3235 2.72144 18.1853 3.18578 16.7009 3.40231C16.287 3.46246 15.9237 3.69824 15.6976 4.05192L10.6523 11.9458H50.3454L45.3002 4.05192C45.074 3.70065 44.7107 3.46246 44.2969 3.40231C42.8124 3.18578 38.6742 2.72144 30.4989 2.72144Z" fill="#1E1E1E"/>
<path opacity="0.24" d="M11.2793 11.604L15.9901 4.23708C16.1609 3.96762 16.44 3.78717 16.7552 3.74146C18.1506 3.53696 22.284 3.06299 30.5027 3.06299C38.7214 3.06299 42.8547 3.53696 44.2502 3.74146C44.563 3.78717 44.842 3.96762 45.0153 4.23708L49.7261 11.604H11.2793Z" fill="#1E1E1E"/>
<path d="M40.7264 20.5447H20.2735C20.1128 20.5447 19.9824 20.675 19.9824 20.8358V20.8382C19.9824 20.999 20.1128 21.1293 20.2735 21.1293H40.7264C40.8871 21.1293 41.0175 20.999 41.0175 20.8382V20.8358C41.0175 20.675 40.8871 20.5447 40.7264 20.5447Z" fill="white"/>
</g>
<path d="M76.344 24V6.72H79.824L86.088 14.184L92.328 6.72H95.832V24H92.64V11.328L86.088 19.128L79.512 11.352V24H76.344ZM101.662 24C101.054 24 100.494 23.848 99.9816 23.544C99.4856 23.24 99.0856 22.84 98.7816 22.344C98.4936 21.848 98.3496 21.296 98.3496 20.688V15.456H109.342V13.512C109.342 13.432 109.31 13.368 109.246 13.32C109.198 13.256 109.134 13.224 109.054 13.224H98.3496V10.08H109.174C109.782 10.08 110.334 10.232 110.83 10.536C111.342 10.84 111.742 11.24 112.03 11.736C112.334 12.232 112.486 12.784 112.486 13.392V24H101.662ZM101.782 20.856H109.342V18.288H101.494V20.568C101.494 20.648 101.518 20.72 101.566 20.784C101.63 20.832 101.702 20.856 101.782 20.856ZM117.714 24C117.106 24 116.554 23.848 116.058 23.544C115.562 23.24 115.162 22.84 114.858 22.344C114.554 21.848 114.402 21.296 114.402 20.688V20.16H117.546V20.568C117.546 20.648 117.57 20.72 117.618 20.784C117.682 20.832 117.754 20.856 117.834 20.856H125.106C125.186 20.856 125.25 20.832 125.298 20.784C125.362 20.72 125.394 20.648 125.394 20.568V18.912C125.394 18.832 125.362 18.768 125.298 18.72C125.25 18.656 125.186 18.624 125.106 18.624H117.714C117.106 18.624 116.554 18.472 116.058 18.168C115.562 17.864 115.162 17.464 114.858 16.968C114.554 16.472 114.402 15.92 114.402 15.312V13.392C114.402 12.784 114.554 12.232 114.858 11.736C115.162 11.24 115.562 10.84 116.058 10.536C116.554 10.232 117.106 10.08 117.714 10.08H125.226C125.85 10.08 126.41 10.232 126.906 10.536C127.402 10.84 127.802 11.24 128.106 11.736C128.41 12.232 128.562 12.784 128.562 13.392V13.92H125.394V13.512C125.394 13.432 125.362 13.368 125.298 13.32C125.25 13.256 125.186 13.224 125.106 13.224H117.834C117.754 13.224 117.682 13.256 117.618 13.32C117.57 13.368 117.546 13.432 117.546 13.512V15.168C117.546 15.248 117.57 15.32 117.618 15.384C117.682 15.432 117.754 15.456 117.834 15.456H125.226C125.85 15.456 126.41 15.608 126.906 15.912C127.402 16.216 127.802 16.616 128.106 17.112C128.41 17.608 128.562 18.16 128.562 18.768V20.688C128.562 21.296 128.41 21.848 128.106 22.344C127.802 22.84 127.402 23.24 126.906 23.544C126.41 23.848 125.85 24 125.226 24H117.714ZM130.999 24V5.52H134.143V10.08H141.823C142.431 10.08 142.983 10.232 143.479 10.536C143.975 10.84 144.375 11.24 144.679 11.736C144.983 12.232 145.135 12.784 145.135 13.392V24H141.991V13.512C141.991 13.432 141.959 13.368 141.895 13.32C141.847 13.256 141.783 13.224 141.703 13.224H134.431C134.351 13.224 134.279 13.256 134.215 13.32C134.167 13.368 134.143 13.432 134.143 13.512V24H130.999ZM147.006 24V10.08H150.15V24H147.006ZM147.006 8.688V5.52H150.15V8.688H147.006ZM152.937 24V10.08H163.761C164.369 10.08 164.921 10.232 165.417 10.536C165.929 10.84 166.329 11.24 166.617 11.736C166.921 12.232 167.073 12.784 167.073 13.392V24H163.929V13.512C163.929 13.432 163.897 13.368 163.833 13.32C163.785 13.256 163.721 13.224 163.641 13.224H156.369C156.289 13.224 156.217 13.256 156.153 13.32C156.105 13.368 156.081 13.432 156.081 13.512V24H152.937ZM172.912 24C172.304 24 171.744 23.848 171.232 23.544C170.736 23.24 170.336 22.84 170.032 22.344C169.744 21.848 169.6 21.296 169.6 20.688V15.456H180.592V13.512C180.592 13.432 180.56 13.368 180.496 13.32C180.448 13.256 180.384 13.224 180.304 13.224H169.6V10.08H180.424C181.032 10.08 181.584 10.232 182.08 10.536C182.592 10.84 182.992 11.24 183.28 11.736C183.584 12.232 183.736 12.784 183.736 13.392V24H172.912ZM173.032 20.856H180.592V18.288H172.744V20.568C172.744 20.648 172.768 20.72 172.816 20.784C172.88 20.832 172.952 20.856 173.032 20.856ZM186.312 24V20.856H189.456V24H186.312ZM191.749 24V5.52H194.893V15.456H197.365L202.333 10.08H205.693V10.944L200.149 17.04L205.669 23.136V24H202.333L197.365 18.624H194.893V24H191.749ZM209.281 29.496V26.328H217.657C217.737 26.328 217.801 26.296 217.849 26.232C217.913 26.184 217.945 26.12 217.945 26.04V24H210.265C209.673 24 209.121 23.848 208.609 23.544C208.113 23.24 207.713 22.84 207.409 22.344C207.105 21.848 206.953 21.296 206.953 20.688V13.392C206.953 12.784 207.105 12.232 207.409 11.736C207.713 11.24 208.113 10.84 208.609 10.536C209.121 10.232 209.673 10.08 210.265 10.08H217.801C218.409 10.08 218.961 10.232 219.457 10.536C219.953 10.84 220.345 11.24 220.633 11.736C220.937 12.232 221.089 12.784 221.089 13.392V26.184C221.089 26.808 220.945 27.368 220.657 27.864C220.369 28.36 219.969 28.752 219.457 29.04C218.961 29.344 218.409 29.496 217.801 29.496H209.281ZM210.385 20.856H217.657C217.737 20.856 217.801 20.832 217.849 20.784C217.913 20.72 217.945 20.648 217.945 20.568V13.512C217.945 13.432 217.913 13.368 217.849 13.32C217.801 13.256 217.737 13.224 217.657 13.224H210.385C210.305 13.224 210.233 13.256 210.169 13.32C210.121 13.368 210.097 13.432 210.097 13.512V20.568C210.097 20.648 210.121 20.72 210.169 20.784C210.233 20.832 210.305 20.856 210.385 20.856Z" fill="white"/>
<defs>
<clipPath id="clip0_37_555">
<rect width="61" height="26.8093" fill="white" transform="translate(0 1.59546)"/>
</clipPath>
</defs>
</svg>
