<svg width="40" height="40" viewBox="0 0 40 40" fill="none" xmlns="http://www.w3.org/2000/svg">
<rect width="40" height="40" rx="20" fill="white"/>
<g clip-path="url(#clip0_42_679)">
<path fill-rule="evenodd" clip-rule="evenodd" d="M18.128 17.8846V17.1582C17.876 17.1225 17.6217 17.104 17.3672 17.1028C14.2537 17.1028 11.7207 19.6362 11.7207 22.7497C11.7207 24.6595 12.6752 26.3502 14.1313 27.3725C13.1563 26.3299 12.6143 24.9555 12.6151 23.528C12.6151 20.4589 15.076 17.9562 18.128 17.8846Z" fill="#00F2EA"/>
<path fill-rule="evenodd" clip-rule="evenodd" d="M18.2622 26.1068C19.6513 26.1068 20.7845 25.0017 20.8361 23.6245L20.8408 11.3306H23.0867C23.0388 11.0739 23.0145 10.8134 23.0142 10.5522H19.9468L19.9417 22.8466C19.8905 24.2233 18.7569 25.328 17.3682 25.328C16.9513 25.3281 16.5406 25.2265 16.1719 25.032C16.41 25.3642 16.7237 25.6349 17.0872 25.8218C17.4507 26.0087 17.8534 26.1064 18.2622 26.1068ZM27.2822 15.5035V14.8202C26.4568 14.821 25.6492 14.5809 24.9582 14.1293C25.564 14.8268 26.3796 15.309 27.2827 15.5035" fill="#00F2EA"/>
<path fill-rule="evenodd" clip-rule="evenodd" d="M24.9577 14.1291C24.2806 13.3544 23.9076 12.3602 23.9081 11.3313H23.0862C23.1926 11.9 23.4134 12.4412 23.7351 12.9221C24.0567 13.4031 24.4727 13.8137 24.9577 14.1291ZM17.3677 20.171C16.684 20.1718 16.0286 20.4437 15.5452 20.9271C15.0618 21.4105 14.7899 22.0659 14.7891 22.7496C14.7895 23.2199 14.9185 23.6811 15.162 24.0834C15.4056 24.4857 15.7544 24.8138 16.1709 25.0322C15.8538 24.5949 15.683 24.0686 15.683 23.5284C15.6837 22.8447 15.9556 22.1891 16.439 21.7056C16.9224 21.2221 17.5779 20.9501 18.2616 20.9493C18.5273 20.9493 18.782 20.9933 19.0225 21.0688V17.937C18.7704 17.9013 18.5162 17.8827 18.2616 17.8815C18.2169 17.8815 18.1729 17.8841 18.1286 17.8849V20.2904C17.8825 20.2121 17.6259 20.1718 17.3677 20.171Z" fill="#FF004F"/>
<path fill-rule="evenodd" clip-rule="evenodd" d="M27.2788 15.5034V17.8875C25.688 17.8875 24.2144 17.3787 23.0108 16.515V22.7492C23.0108 25.8627 20.4782 28.3956 17.3648 28.3956C16.1616 28.3956 15.0459 28.0161 14.1289 27.372C14.6561 27.9406 15.295 28.3941 16.0057 28.7042C16.7163 29.0142 17.4834 29.1742 18.2587 29.174C21.3722 29.174 23.9052 26.641 23.9052 23.528V17.2938C25.1485 18.1879 26.6417 18.6681 28.1732 18.6663V15.598C27.8661 15.598 27.5675 15.5648 27.2788 15.5029" fill="#FF004F"/>
<path fill-rule="evenodd" clip-rule="evenodd" d="M23.0153 22.7496V16.5154C24.2586 17.4096 25.7518 17.8898 27.2833 17.8879V15.5038C26.3803 15.309 25.5649 14.8267 24.9593 14.1291C24.4743 13.8137 24.0583 13.4031 23.7366 12.9221C23.4149 12.4412 23.1942 11.9 23.0878 11.3313H20.8418L20.8372 23.6252C20.7855 25.002 19.6523 26.107 18.2632 26.107C17.8545 26.1066 17.4518 26.0089 17.0883 25.822C16.7248 25.6351 16.4111 25.3644 16.1729 25.0322C15.7564 24.8139 15.4074 24.4858 15.1638 24.0835C14.9202 23.6812 14.7911 23.2199 14.7906 22.7496C14.7914 22.0659 15.0634 21.4105 15.5468 20.9271C16.0302 20.4437 16.6856 20.1718 17.3693 20.171C17.6346 20.171 17.8892 20.2145 18.1301 20.2904V17.8849C15.0781 17.9566 12.6172 20.4593 12.6172 23.5284C12.6172 25.0126 13.1938 26.3638 14.1334 27.3729C15.0806 28.0397 16.2109 28.3971 17.3693 28.3961C20.4827 28.3961 23.0153 25.8631 23.0153 22.7496Z" fill="#0D0D0D"/>
</g>
<defs>
<clipPath id="clip0_42_679">
<rect width="18.6219" height="18.6219" fill="white" transform="translate(10.5547 10.5525)"/>
</clipPath>
</defs>
</svg>
