<svg width="40" height="40" viewBox="0 0 40 40" fill="none" xmlns="http://www.w3.org/2000/svg">
<path d="M19.9961 39.9998C31.0418 39.9998 39.9961 31.0455 39.9961 19.9998C39.9961 8.95406 31.0418 -0.000244141 19.9961 -0.000244141C8.9504 -0.000244141 -0.00390625 8.95406 -0.00390625 19.9998C-0.00390625 31.0455 8.9504 39.9998 19.9961 39.9998Z" fill="#25D366"/>
<path fill-rule="evenodd" clip-rule="evenodd" d="M20.6566 31.127H20.6517C18.6613 31.1263 16.7056 30.6269 14.9685 29.6795L8.66406 31.3333L10.3512 25.1706C9.31051 23.367 8.76288 21.3212 8.76377 19.2251C8.76638 12.668 14.1014 7.33325 20.6565 7.33325C23.8379 7.33463 26.8239 8.57314 29.0692 10.8211C31.3146 13.0689 32.5504 16.0569 32.5492 19.2345C32.5466 25.7901 27.2136 31.1243 20.6566 31.127ZM15.2613 27.5263L15.6223 27.7406C17.1399 28.6412 18.8796 29.1177 20.6533 29.1184H20.6573C26.1055 29.1184 30.5397 24.6841 30.5419 19.2337C30.5429 16.5924 29.5157 14.109 27.6495 12.2406C25.7833 10.3722 23.3014 9.34272 20.6612 9.34181C15.2089 9.34181 10.7746 13.7757 10.7724 19.2257C10.7717 21.0934 11.2942 22.9124 12.2837 24.4861L12.5187 24.8601L11.5202 28.5077L15.2613 27.5263ZM26.2394 21.795C26.4467 21.8951 26.5866 21.9628 26.6464 22.0625C26.7207 22.1864 26.7207 22.7814 26.4732 23.4756C26.2254 24.1697 25.0383 24.8032 24.4673 24.8885C23.9554 24.9651 23.3075 24.997 22.5957 24.7708C22.1641 24.6338 21.6106 24.451 20.9017 24.1448C18.1159 22.9419 16.2333 20.2419 15.8775 19.7316C15.8525 19.6959 15.8351 19.6708 15.8254 19.6579L15.823 19.6547C15.6657 19.4448 14.612 18.0389 14.612 16.5839C14.612 15.2151 15.2844 14.4977 15.5939 14.1674C15.6151 14.1448 15.6346 14.124 15.652 14.1049C15.9244 13.8074 16.2464 13.733 16.4445 13.733C16.6425 13.733 16.8409 13.7349 17.014 13.7436C17.0354 13.7446 17.0576 13.7445 17.0805 13.7444C17.2537 13.7434 17.4696 13.7421 17.6826 14.2537C17.7645 14.4505 17.8844 14.7424 18.0108 15.0502C18.2665 15.6727 18.5491 16.3605 18.5988 16.4601C18.6731 16.6088 18.7226 16.7823 18.6235 16.9807C18.6087 17.0105 18.5949 17.0385 18.5818 17.0654C18.5074 17.2172 18.4527 17.329 18.3264 17.4764C18.2767 17.5344 18.2254 17.5969 18.1741 17.6593C18.0719 17.7838 17.9697 17.9083 17.8806 17.997C17.7319 18.1452 17.577 18.306 17.7504 18.6035C17.9237 18.901 18.5201 19.874 19.4035 20.662C20.3531 21.509 21.1784 21.867 21.5967 22.0484C21.6784 22.0839 21.7446 22.1126 21.7932 22.1369C22.0902 22.2857 22.2635 22.2608 22.4369 22.0625C22.6102 21.8642 23.1797 21.1948 23.3778 20.8973C23.5759 20.6 23.774 20.6495 24.0464 20.7486C24.3188 20.8479 25.7798 21.5667 26.0769 21.7154C26.1349 21.7444 26.1892 21.7707 26.2394 21.795Z" fill="#FDFDFD"/>
</svg>
